<?xml version="1.0" encoding="UTF-8"?>
<svg xmlns="http://www.w3.org/2000/svg" xmlns:xlink="http://www.w3.org/1999/xlink" width="157px" height="165px" viewBox="0 0 157 165" version="1.1">
<g id="surface1">
<path style=" stroke:none;fill-rule:nonzero;fill:rgb(47.45098%,77.647059%,75.294118%);fill-opacity:1;" d="M 128.742188 21.882812 L 156.992188 50.109375 L 100.488281 50.109375 Z M 128.742188 21.882812 "/>
<path style=" stroke:none;fill-rule:nonzero;fill:rgb(47.45098%,77.647059%,75.294118%);fill-opacity:1;" d="M 128.742188 96.789062 L 156.992188 68.5625 L 100.488281 68.5625 Z M 128.742188 96.789062 "/>
<path style=" stroke:none;fill-rule:nonzero;fill:rgb(47.45098%,77.647059%,75.294118%);fill-opacity:1;" d="M 28.257812 21.882812 L 56.511719 50.109375 L 0.0078125 50.109375 Z M 28.257812 21.882812 "/>
<path style=" stroke:none;fill-rule:nonzero;fill:rgb(47.45098%,77.647059%,75.294118%);fill-opacity:1;" d="M 28.257812 96.789062 L 56.511719 68.5625 L 0.0078125 68.5625 Z M 28.257812 96.789062 "/>
<path style=" stroke:none;fill-rule:nonzero;fill:rgb(0%,29.803922%,60%);fill-opacity:1;" d="M 78.585938 89.453125 L 106.839844 117.683594 L 50.335938 117.683594 Z M 78.585938 89.453125 "/>
<path style=" stroke:none;fill-rule:nonzero;fill:rgb(0%,29.803922%,60%);fill-opacity:1;" d="M 78.585938 28.226562 L 106.839844 0 L 50.335938 0 Z M 78.585938 28.226562 "/>
<path style=" stroke:none;fill-rule:nonzero;fill:rgb(100%,83.529412%,0%);fill-opacity:1;" d="M 96.46875 59.25 L 78.585938 77.117188 L 78.585938 41.324219 Z M 96.46875 59.25 "/>
<path style=" stroke:none;fill-rule:nonzero;fill:rgb(85.882353%,58.431373%,2.352941%);fill-opacity:1;" d="M 60.644531 59.25 L 78.585938 77.117188 L 78.585938 41.324219 Z M 60.644531 59.25 "/>
<path style=" stroke:none;fill-rule:nonzero;fill:rgb(0%,29.803922%,60%);fill-opacity:1;" d="M 0.824219 161.855469 L 3.328125 158.890625 C 5.074219 160.285156 6.824219 161.21875 9.035156 161.21875 C 11.25 161.21875 11.773438 160.519531 11.773438 159.414062 C 11.773438 158.363281 11.132812 157.78125 7.929688 156.96875 C 4.726562 156.152344 1.636719 154.929688 1.636719 151.148438 C 1.636719 147.714844 4.375 145.386719 8.277344 145.386719 C 10.863281 145.339844 13.378906 146.203125 15.386719 147.832031 L 13.230469 150.972656 C 11.484375 149.808594 9.851562 149.109375 8.21875 149.109375 C 6.589844 149.109375 5.773438 149.867188 5.773438 150.800781 C 5.773438 152.078125 6.589844 152.488281 9.910156 153.359375 C 13.230469 154.234375 15.96875 155.746094 15.96875 159.0625 C 15.96875 162.847656 13.054688 164.941406 8.917969 164.941406 C 5.933594 164.929688 3.058594 163.832031 0.824219 161.855469 Z M 0.824219 161.855469 "/>
<path style=" stroke:none;fill-rule:nonzero;fill:rgb(0%,29.803922%,60%);fill-opacity:1;" d="M 20.160156 145.5625 L 34.550781 145.5625 L 34.550781 149.285156 L 24.355469 149.285156 L 24.355469 153.183594 L 33.328125 153.183594 L 33.328125 156.910156 L 24.355469 156.910156 L 24.355469 160.925781 L 34.722656 160.925781 L 34.722656 164.652344 L 20.160156 164.652344 Z M 25.929688 144.046875 L 22.257812 141.3125 L 25.8125 139.800781 L 29.132812 144.046875 Z M 25.929688 144.046875 "/>
<path style=" stroke:none;fill-rule:nonzero;fill:rgb(0%,29.803922%,60%);fill-opacity:1;" d="M 38.976562 145.5625 L 43.519531 145.5625 L 48.53125 153.652344 L 53.539062 145.5625 L 58.082031 145.5625 L 58.082031 164.652344 L 53.890625 164.652344 L 53.890625 152.195312 L 48.53125 160.34375 L 48.414062 160.34375 L 43.113281 152.253906 L 43.113281 164.652344 L 38.976562 164.652344 Z M 38.976562 145.5625 "/>
<path style=" stroke:none;fill-rule:nonzero;fill:rgb(0%,29.803922%,60%);fill-opacity:1;" d="M 63.210938 145.5625 L 77.597656 145.5625 L 77.597656 149.285156 L 67.402344 149.285156 L 67.402344 153.183594 L 76.375 153.183594 L 76.375 156.910156 L 67.402344 156.910156 L 67.402344 160.925781 L 77.714844 160.925781 L 77.714844 164.652344 L 63.210938 164.652344 Z M 68.976562 144.046875 L 65.304688 141.3125 L 68.859375 139.800781 L 72.179688 144.046875 Z M 68.976562 144.046875 "/>
<path style=" stroke:none;fill-rule:nonzero;fill:rgb(0%,29.803922%,60%);fill-opacity:1;" d="M 89.886719 155.164062 C 89.855469 152.519531 90.898438 149.976562 92.773438 148.113281 C 94.652344 146.246094 97.203125 145.222656 99.847656 145.269531 C 103.460938 145.269531 105.617188 146.492188 107.421875 148.238281 L 104.742188 151.324219 C 103.226562 149.984375 101.769531 149.167969 99.847656 149.167969 C 96.644531 149.167969 94.316406 151.847656 94.316406 155.105469 C 94.316406 158.363281 96.585938 161.101562 99.847656 161.101562 C 102.003906 161.101562 103.34375 160.226562 104.859375 158.832031 L 107.539062 161.566406 C 105.558594 163.660156 103.402344 164.941406 99.675781 164.941406 C 97.0625 164.988281 94.546875 163.976562 92.703125 162.128906 C 90.855469 160.285156 89.839844 157.773438 89.886719 155.164062 Z M 89.886719 155.164062 "/>
<path style=" stroke:none;fill-rule:nonzero;fill:rgb(0%,29.803922%,60%);fill-opacity:1;" d="M 111.617188 145.5625 L 115.808594 145.5625 L 115.808594 164.652344 L 111.617188 164.652344 Z M 111.617188 145.5625 "/>
<path style=" stroke:none;fill-rule:nonzero;fill:rgb(0%,29.803922%,60%);fill-opacity:1;" d="M 125.59375 149.402344 L 119.769531 149.402344 L 119.769531 145.5625 L 135.613281 145.5625 L 135.613281 149.402344 L 129.789062 149.402344 L 129.789062 164.652344 L 125.59375 164.652344 Z M 125.59375 149.402344 "/>
<path style=" stroke:none;fill-rule:nonzero;fill:rgb(0%,29.803922%,60%);fill-opacity:1;" d="M 144.761719 157.085938 L 137.421875 145.5625 L 142.3125 145.5625 L 146.855469 153.242188 L 151.515625 145.5625 L 156.292969 145.5625 L 148.953125 157.027344 L 148.953125 164.652344 L 144.761719 164.652344 Z M 144.761719 157.085938 "/>
</g>
</svg>
